<svg width="512" height="512" viewBox="0 0 512 512" fill="none" xmlns="http://www.w3.org/2000/svg">
<path d="M336 376V272H191C186.757 272 182.687 270.314 179.686 267.314C176.686 264.313 175 260.243 175 256C175 251.757 176.686 247.687 179.686 244.686C182.687 241.686 186.757 240 191 240H336V136C335.984 121.153 330.079 106.918 319.58 96.4196C309.082 85.921 294.847 80.0159 280 80H88C73.1528 80.0159 58.9182 85.921 48.4196 96.4196C37.921 106.918 32.0159 121.153 32 136V376C32.0159 390.847 37.921 405.082 48.4196 415.58C58.9182 426.079 73.1528 431.984 88 432H280C294.847 431.984 309.082 426.079 319.58 415.58C330.079 405.082 335.984 390.847 336 376ZM425.37 272L372.69 324.69C369.816 327.715 368.238 331.743 368.291 335.915C368.344 340.087 370.026 344.074 372.976 347.024C375.926 349.974 379.913 351.656 384.085 351.709C388.257 351.762 392.285 350.184 395.31 347.31L475.31 267.31C478.308 264.31 479.993 260.242 479.993 256C479.993 251.758 478.308 247.69 475.31 244.69L395.31 164.69C392.285 161.816 388.257 160.238 384.085 160.291C379.913 160.344 375.926 162.026 372.976 164.976C370.026 167.926 368.344 171.913 368.291 176.085C368.238 180.257 369.816 184.285 372.69 187.31L425.37 240H336V272H425.37Z" fill="white"/>
</svg>
