<svg width="424" height="352" viewBox="0 0 424 352" fill="none" xmlns="http://www.w3.org/2000/svg">
<g clip-path="url(#clip0_13_1876)">
<path d="M407.58 16.42C397.08 5.92 382.85 0.02 368 0H176C161.15 0.02 146.92 5.92 136.42 16.42C125.92 26.92 120.02 41.15 120 56V160H15C-4.97998 161.95 -4.53998 189.55 13.56 191.86C-4.96998 188.17 -4.14998 160.97 16 160.21H250.37L197.69 107.52C194.82 104.49 193.24 100.47 193.29 96.29C193.34 92.12 195.03 88.14 197.98 85.19C200.93 82.24 204.91 80.55 209.09 80.5C213.26 80.45 217.29 82.03 220.31 84.9L300.31 164.9C303.31 167.9 304.99 171.97 304.99 176.21C304.99 180.45 303.31 184.52 300.31 187.52L220.31 267.52C217.29 270.39 213.26 271.97 209.09 271.92C204.91 271.87 200.93 270.18 197.98 267.23C195.02 264.28 193.34 260.3 193.29 256.12C193.24 251.95 194.82 247.92 197.69 244.9L250.37 192.21H120V296C120.02 310.85 125.92 325.08 136.42 335.58C146.92 346.08 161.15 351.98 176 352H368C382.85 351.98 397.08 346.08 407.58 335.58C418.08 325.08 423.98 310.85 424 296V56C423.98 41.15 418.08 26.92 407.58 16.42Z" fill="white"/>
<path d="M16.1253 160H120V192H16.1253C-5.99974 192 -5 160 16.1253 160Z" fill="white"/>
</g>
<defs>
<clipPath id="clip0_13_1876">
<rect width="424" height="352" fill="white"/>
</clipPath>
</defs>
</svg>
