<svg width="100" height="100" viewBox="0 0 100 100" fill="none" xmlns="http://www.w3.org/2000/svg">
<path d="M55.5 5.48483L85.8013 22.9793C89.2047 24.9442 91.3013 28.5756 91.3013 32.5056V67.4944C91.3013 71.4244 89.2047 75.0558 85.8013 77.0207L55.5 94.5152C52.0966 96.4801 47.9034 96.4801 44.5 94.5152L14.1987 77.0207C10.7953 75.0558 8.69873 71.4244 8.69873 67.4944V32.5056C8.69873 28.5756 10.7953 24.9442 14.1987 22.9793L44.5 5.48483C47.9034 3.51987 52.0966 3.51987 55.5 5.48483Z" fill="#01BAFA" stroke="white" stroke-width="4"/>
<path d="M58.4043 43.0374C60.0451 44.954 60.9097 47.4151 60.828 49.9368C60.7464 52.4586 59.7244 54.8586 57.963 56.665C56.2016 58.4715 53.8281 59.5537 51.3093 59.699C48.7904 59.8443 46.3083 59.0421 44.3509 57.4502C42.3934 55.8582 41.1023 53.5916 40.7312 51.096C40.3602 48.6004 40.936 46.0562 42.3456 43.9637C43.7552 41.8711 45.8966 40.3815 48.3488 39.7877C50.801 39.1938 53.3866 39.5387 55.5974 40.7546L54.6202 42.5313C52.853 41.5594 50.7862 41.2837 48.826 41.7584C46.8658 42.233 45.1541 43.4238 44.0273 45.0965C42.9005 46.7692 42.4402 48.8029 42.7368 50.7978C43.0334 52.7927 44.0655 54.6045 45.6302 55.8771C47.1949 57.1496 49.179 57.7908 51.1925 57.6747C53.206 57.5586 55.1032 56.6935 56.5112 55.2495C57.9192 53.8055 58.7362 51.887 58.8014 49.8712C58.8667 47.8554 58.1756 45.8881 56.864 44.3561L58.4043 43.0374Z" fill="white"/>
<path d="M62.5099 40.0168C65.0334 43.1592 66.2824 47.136 66.0087 51.157C65.7349 55.178 63.9585 58.9488 61.0324 61.7203C58.1062 64.4917 54.2445 66.0609 50.2146 66.116C46.1847 66.1712 42.2816 64.7082 39.2807 62.0179C36.2798 59.3275 34.4009 55.6067 34.0172 51.5947C33.6336 47.5827 34.7733 43.5732 37.2099 40.3629C39.6465 37.1526 43.2017 34.9765 47.169 34.2669C51.1364 33.5573 55.2255 34.3661 58.6238 36.5328L57.3609 38.5136C54.46 36.664 50.9693 35.9735 47.5826 36.5793C44.196 37.185 41.1611 39.0427 39.0811 41.7831C37.0011 44.5236 36.0282 47.9463 36.3557 51.3711C36.6832 54.7959 38.2871 57.9722 40.8488 60.2688C43.4105 62.5654 46.7424 63.8142 50.1825 63.7671C53.6226 63.7201 56.9191 62.3805 59.417 60.0147C61.9149 57.6489 63.4313 54.4299 63.665 50.9974C63.8987 47.5649 62.8325 44.1702 60.6783 41.4876L62.5099 40.0168Z" fill="white"/>
<path d="M67.116 36.2578C70.5942 40.5702 72.3169 46.0363 71.9398 51.5637C71.5627 57.0912 69.1136 62.2727 65.082 66.0727C61.0504 69.8728 55.7332 72.0114 50.1931 72.0612C44.6531 72.111 39.2983 70.0683 35.199 66.3414C31.0997 62.6144 28.5578 57.4777 28.0815 51.958C27.6051 46.4383 29.2293 40.942 32.6294 36.5678C36.0295 32.1936 40.9551 29.2637 46.4218 28.3635C51.8884 27.4634 57.4934 28.6594 62.1165 31.7125L60.6411 33.9467C56.5807 31.2652 51.658 30.2148 46.8568 31.0054C42.0556 31.796 37.7295 34.3693 34.7433 38.211C31.7571 42.0528 30.3306 46.8799 30.749 51.7278C31.1674 56.5756 33.3998 61.087 37.0001 64.3603C40.6004 67.6336 45.3034 69.4276 50.1691 69.3839C55.0347 69.3402 59.7047 67.4619 63.2456 64.1244C66.7864 60.7869 68.9374 56.2361 69.2686 51.3815C69.5998 46.5269 68.0868 41.7262 65.0319 37.9387L67.116 36.2578Z" fill="white"/>
<path d="M64.6077 27.9862L65.241 31.6382L49.6631 48.37C49.3788 48.6754 49.3019 49.1321 49.5101 49.4938C49.7825 49.9669 49.9672 50.0494 50.548 50.0638C50.8194 50.0705 51.08 49.9564 51.2685 49.7609L67.0244 33.4216L71.1963 33.7149L77.5117 26.2817L71.7566 26.4912L70.74 21.1771L64.6077 27.9862Z" fill="white"/>
</svg>
