<svg width="34" height="34" viewBox="0 0 34 34" fill="none" xmlns="http://www.w3.org/2000/svg">
<path d="M20.3779 20.8138V13.1865H25.8802V20.8138H20.3779ZM21.6302 19.5615H24.6279V14.4388H21.6302V19.5615ZM8.11806 20.8138V16.4561H12.3681V14.4388H8.11806V13.1865H13.6218V17.5455H9.37181V19.5615H13.6218V20.8138H8.11806ZM16.373 15.3936V14.1385H17.6253V15.3922L16.373 15.3936ZM16.373 20.0247V18.771H17.6253V20.0247H16.373ZM4.19531 26.6165V7.54671H10.6241V4.71338H12.0408V7.54671H21.9575V4.71338H23.3741V7.54671H29.8044V26.6179L4.19531 26.6165ZM5.61198 25.1998H16.373V23.4035H17.6253V25.2026H28.3877V8.96196H17.6253V10.7611H16.373V8.96196H5.61198V25.1998Z" fill="#0BB839"/>
</svg>
