<svg width="22" height="30" viewBox="0 0 22 30" fill="none" xmlns="http://www.w3.org/2000/svg">
<path d="M4.67905 25.625H17.3143C17.1996 24.52 16.9318 23.7805 16.6556 23.2577C16.3049 22.599 15.8353 22.089 15.2063 21.545C14.9726 21.3431 14.7643 21.1752 14.5221 20.9776L14.1247 20.6567C13.6642 20.2906 13.2297 19.8929 12.8242 19.4668C11.8531 18.4298 11.0009 16.9911 11.0009 15C11.0009 16.9933 10.1467 18.4297 9.17343 19.4689C8.7679 19.8951 8.33336 20.2927 7.87293 20.6589L7.47555 20.9776C7.24418 21.1635 7.01606 21.3533 6.79131 21.5471C6.16018 22.0911 5.69055 22.599 5.33993 23.2577C5.06368 23.7826 4.7938 24.5221 4.67905 25.625ZM0.382305 3.62063C0.331305 1.57212 2.07593 0.125 3.94593 0.125H18.0517C19.9217 0.125 21.6684 1.57212 21.6174 3.62063C21.5643 5.78175 21.1074 7.4265 20.4126 8.7355C19.7219 10.0403 18.8252 10.9455 17.9901 11.668C17.7011 11.9188 17.4036 12.1567 17.1337 12.3756L16.8213 12.6306C16.5052 12.8777 16.2069 13.1468 15.9288 13.436C15.4783 13.9162 15.2509 14.3625 15.2509 15C15.2509 15.6375 15.4783 16.0837 15.9309 16.564C16.1689 16.8211 16.4622 17.0761 16.8213 17.3715L17.1337 17.6265C17.4036 17.8432 17.7011 18.0812 17.9879 18.332C18.8231 19.0545 19.7177 19.9597 20.4104 21.2645C21.1032 22.5714 21.5601 24.2161 21.6174 26.3751C21.6706 28.4257 19.9217 29.875 18.0496 29.875H3.94593C2.07593 29.875 0.32493 28.4257 0.38018 26.3751C0.43543 24.214 0.892304 22.5714 1.58718 21.2645C2.28205 19.9576 3.17668 19.0524 4.0118 18.332C4.3008 18.0812 4.59618 17.8432 4.86605 17.6244L5.18055 17.3694C5.53968 17.0761 5.83293 16.8211 6.07306 16.564C6.52143 16.0837 6.75093 15.6375 6.75093 15C6.75093 14.3625 6.52143 13.9162 6.07093 13.436C5.79288 13.1461 5.49464 12.8762 5.17843 12.6285L4.86393 12.3756C4.57535 12.1444 4.29056 11.9085 4.00968 11.668C3.17455 10.9455 2.2778 10.0403 1.58505 8.7355C0.89018 7.4265 0.43543 5.78175 0.382305 3.62063ZM3.94593 2.25C3.0853 2.25 2.48605 2.8875 2.50305 3.5675C2.5498 5.446 2.94081 6.75925 3.45931 7.73888C3.97781 8.7185 4.66418 9.42825 5.39518 10.0615C5.65655 10.2868 5.90943 10.4907 6.16655 10.699L6.52143 10.9859C6.89331 11.2898 7.27793 11.6191 7.62005 11.9846C8.3298 12.7432 8.87381 13.6846 8.87381 15C8.87381 16.3132 8.33193 17.2567 7.62005 18.0175C7.28005 18.3787 6.89543 18.7081 6.52355 19.0141L6.16655 19.3031C5.90943 19.5114 5.65655 19.7132 5.3973 19.9406C4.6663 20.5717 3.98206 21.2794 3.45931 22.2611C2.94081 23.2386 2.54768 24.5519 2.4988 26.4304C2.4818 27.1104 3.08105 27.75 3.94168 27.75H18.0474C18.9081 27.75 19.5073 27.1104 19.4903 26.4304C19.4414 24.5519 19.0504 23.2386 18.5319 22.2611C18.0092 21.2794 17.3271 20.5718 16.5961 19.9385C16.3347 19.7133 16.0861 19.5093 15.8268 19.301L15.4719 19.0141C15.0836 18.7072 14.7172 18.3734 14.3754 18.0154C13.6636 17.2568 13.1217 16.3154 13.1217 15C13.1217 13.6868 13.6657 12.7433 14.3754 11.9825C14.7176 11.6191 15.1022 11.2898 15.4741 10.9859L15.8289 10.699C16.0882 10.4907 16.3389 10.2868 16.6003 10.0615C17.3313 9.42825 18.0156 8.72063 18.5362 7.73888C19.0547 6.76138 19.4457 5.446 19.4924 3.5675C19.5094 2.8875 18.9102 2.25 18.0517 2.25H3.94593Z" fill="#FF5C5F"/>
</svg>
