<svg width="100" height="100" viewBox="0 0 100 100" fill="none" xmlns="http://www.w3.org/2000/svg">
<path d="M44.5 5.48483C47.9034 3.51987 52.0966 3.51987 55.5 5.48483L85.8013 22.9793C89.2047 24.9442 91.3013 28.5756 91.3013 32.5056V67.4944C91.3013 71.4244 89.2047 75.0558 85.8013 77.0207L55.5 94.5152C52.0966 96.4801 47.9034 96.4801 44.5 94.5152L14.1987 77.0207C10.7953 75.0558 8.69873 71.4244 8.69873 67.4944V32.5056C8.69873 28.5756 10.7953 24.9442 14.1987 22.9793L44.5 5.48483Z" fill="#FD8A02" stroke="white" stroke-width="4"/>
<path d="M31.5988 51.7134L31.3286 52.125L31.5988 52.5366C32.954 54.601 34.5128 56.523 36.2568 58.2727L36.2577 58.2736C39.8674 61.8833 44.8877 65.25 51 65.25C57.1123 65.25 62.1326 61.8833 65.7423 58.2736C67.5274 56.4885 68.9164 54.6923 69.8558 53.3462L69.8581 53.3429C70.0601 53.0501 70.2416 52.782 70.4025 52.5388L70.6752 52.1266L70.404 51.7134C69.0485 49.6486 67.4869 47.7267 65.7432 45.9773L65.7423 45.9764C62.1327 42.3668 57.1151 39 51 39C44.885 39 39.8646 42.3666 36.26 45.9768L36.2595 45.9773C34.5159 47.7267 32.9543 49.6486 31.5988 51.7134ZM29.8655 52.125C29.9103 52.0494 29.9624 51.9627 30.0215 51.8658C30.267 51.4637 30.6347 50.8857 31.1192 50.1906C32.0891 48.7989 33.5222 46.9447 35.3741 45.0928C39.0908 41.3761 44.4105 37.75 51 37.75C57.5895 37.75 62.9092 41.3761 66.6259 45.0928C68.4778 46.9447 69.9109 48.7989 70.8808 50.1906C71.3653 50.8857 71.733 51.4637 71.9785 51.8658C72.0376 51.9627 72.0897 52.0494 72.1345 52.125C72.0897 52.2006 72.0376 52.2873 71.9785 52.3842C71.733 52.7863 71.3653 53.3643 70.8808 54.0594C69.9109 55.4511 68.4778 57.3053 66.6259 59.1572C62.9092 62.8739 57.5895 66.5 51 66.5C44.4105 66.5 39.0908 62.8739 35.3741 59.1572C33.5222 57.3053 32.0891 55.4511 31.1192 54.0594C30.6347 53.3643 30.267 52.7863 30.0215 52.3842C29.9624 52.2873 29.9103 52.2006 29.8655 52.125Z" stroke="white" stroke-width="1.5"/>
<path d="M51 44.5C48.9777 44.5 47.0383 45.3033 45.6083 46.7333C44.1783 48.1633 43.375 50.1027 43.375 52.125C43.375 54.1473 44.1783 56.0867 45.6083 57.5167C47.0383 58.9467 48.9777 59.75 51 59.75C53.0223 59.75 54.9617 58.9467 56.3917 57.5167C57.8217 56.0867 58.625 54.1473 58.625 52.125C58.625 50.1027 57.8217 48.1633 56.3917 46.7333C54.9617 45.3033 53.0223 44.5 51 44.5ZM42.125 52.125C42.125 49.7712 43.06 47.5138 44.7244 45.8494C46.3888 44.185 48.6462 43.25 51 43.25C53.3538 43.25 55.6112 44.185 57.2756 45.8494C58.94 47.5138 59.875 49.7712 59.875 52.125C59.875 54.4788 58.94 56.7362 57.2756 58.4006C55.6112 60.065 53.3538 61 51 61C48.6462 61 46.3888 60.065 44.7244 58.4006C43.06 56.7362 42.125 54.4788 42.125 52.125Z" stroke="white" stroke-width="1.5"/>
<path opacity="0.65" d="M28 38V31H34" stroke="white" stroke-width="3"/>
<path opacity="0.65" d="M28 65V72H34" stroke="white" stroke-width="3"/>
<path d="M74 65V72H68" stroke="white" stroke-width="3"/>
<path opacity="0.65" d="M74 38V31H68" stroke="white" stroke-width="3"/>
<circle cx="51" cy="52" r="1.5" stroke="white" stroke-width="3"/>
<line opacity="0.65" x1="51.75" y1="57" x2="51.75" y2="68" stroke="white" stroke-width="1.5"/>
<line opacity="0.65" x1="51.75" y1="36" x2="51.75" y2="47" stroke="white" stroke-width="1.5"/>
<line opacity="0.65" x1="56" y1="51.25" x2="68" y2="51.25" stroke="white" stroke-width="1.5"/>
<line opacity="0.65" x1="34" y1="51.25" x2="46" y2="51.25" stroke="white" stroke-width="1.5"/>
</svg>
